<?xml version="1.0" standalone="no"?>
<!DOCTYPE svg PUBLIC "-//W3C//DTD SVG 20010904//EN"
 "http://www.w3.org/TR/2001/REC-SVG-20010904/DTD/svg10.dtd">
<svg version="1.0" xmlns="http://www.w3.org/2000/svg"
 width="800.000000pt" height="800.000000pt" viewBox="0 0 800.000000 800.000000"
 preserveAspectRatio="xMidYMid meet">
<metadata>
Created by potrace 1.14, written by Peter Selinger 2001-2017
</metadata>
<g transform="translate(0.000000,800.000000) scale(0.100000,-0.100000)"
fill="#000000" stroke="none">
<path d="M0 4000 l0 -4000 4000 0 4000 0 0 4000 0 4000 -4000 0 -4000 0 0
-4000z m4782 2775 c155 -16 336 -49 488 -86 480 -119 925 -359 1249 -673 92
-89 231 -244 231 -257 0 -6 -428 -396 -958 -873 l-23 -21 -72 79 c-197 218
-462 397 -711 481 -273 92 -604 107 -896 41 -137 -31 -213 -58 -335 -116 -518
-250 -814 -764 -815 -1413 -1 -847 511 -1459 1302 -1557 61 -8 171 -11 295 -8
179 5 209 8 314 36 328 85 601 252 837 509 l80 88 24 -21 c534 -481 958 -867
958 -873 0 -14 -142 -171 -231 -256 -436 -417 -997 -666 -1689 -752 -180 -22
-665 -25 -835 -5 -431 51 -773 153 -1128 334 -772 396 -1305 1119 -1452 1968
-70 400 -58 843 32 1230 155 670 567 1265 1143 1649 460 308 1032 487 1625
509 176 7 442 1 567 -13z"/>
</g>
</svg>
